<?xml version="1.0" encoding="UTF-8"?>
<!DOCTYPE svg PUBLIC "-//W3C//DTD SVG 1.1//EN" "http://www.w3.org/Graphics/SVG/1.1/DTD/svg11.dtd">
<!-- Creator: CorelDRAW 2020 (64 Bit) -->
<svg xmlns="http://www.w3.org/2000/svg" xml:space="preserve" width="231.7mm" height="31.5556mm" version="1.1" style="shape-rendering:geometricPrecision; text-rendering:geometricPrecision; image-rendering:optimizeQuality; fill-rule:evenodd; clip-rule:evenodd"
viewBox="0 0 23168.96 3155.42"
 xmlns:xlink="http://www.w3.org/1999/xlink"
 xmlns:xodm="http://www.corel.com/coreldraw/odm/2003">
 <defs>
  <style type="text/css">
   <![CDATA[
    .fil3 {fill:#53B9C4}
    .fil2 {fill:#463770}
    .fil4 {fill:#373435;fill-rule:nonzero}
    .fil0 {fill:#53B9C4;fill-rule:nonzero}
    .fil1 {fill:#463770;fill-rule:nonzero}
   ]]>
  </style>
 </defs>
 <g id="Camada_x0020_1">
  <metadata id="CorelCorpID_0Corel-Layer"/>
  <g id="_3041844073776">
   <g>
    <polygon class="fil0" points="13093.46,1699.92 13093.46,0 15057.86,0 15057.86,280.06 13437.54,280.06 13437.54,679.72 14361.72,679.72 14361.72,955.77 13437.54,955.77 13437.54,1699.92 "/>
    <polygon class="fil0" points="15299.81,1699.92 15299.81,3.58 17008.15,3.58 17008.15,255.63 15619.88,255.63 15619.88,691.72 16456.04,691.72 16456.04,943.77 15619.88,943.77 15619.88,1451.87 17024.15,1451.87 17024.15,1699.92 "/>
    <polygon class="fil0" points="17188.08,1699.92 17188.08,3.58 17508.15,3.58 17508.15,1443.87 18828.41,1443.87 18828.41,1699.92 "/>
    <polygon class="fil0" points="19312.4,1699.92 18992.34,1699.92 18992.34,7.58 19312.4,7.58 "/>
    <path class="fil0" d="M20764.59 251.63l-968.2 0 0 536.11 968.2 0c72.01,0 122.02,-12 150.02,-36 28.01,-24.01 42.01,-66.02 42.01,-124.69l0 -214.71c0,-58.68 -14,-100.69 -41.34,-124.69 -27.34,-24.01 -77.35,-36.01 -150.69,-36.01zm-1288.26 1448.29l0 -1696.34 1433.62 0c131.35,0 226.04,25.34 284.06,76.02 58.01,50.68 86.68,134.69 86.68,252.05l0 380.08c0,114.01 -28.67,197.37 -86.68,248.05 -58.02,50.68 -152.7,76.02 -284.06,76.02l-1113.56 0 0 664.13 -320.07 0z"/>
    <polygon class="fil0" points="21444.62,1699.92 21444.62,3.58 23152.96,3.58 23152.96,255.63 21764.68,255.63 21764.68,691.72 22600.85,691.72 22600.85,943.77 21764.68,943.77 21764.68,1451.87 23168.96,1451.87 23168.96,1699.92 "/>
    <polygon class="fil1" points="1288.26,287.64 1288.26,1699.92 944.2,1699.92 944.2,287.64 -0,287.64 -0,7.58 2236.46,7.58 2236.46,287.64 "/>
    <polygon class="fil1" points="2461.18,1699.92 2461.18,7.58 2781.24,7.58 2781.24,687.72 4133.51,687.72 4133.51,7.58 4453.58,7.58 4453.58,1699.92 4133.51,1699.92 4133.51,943.77 2781.24,943.77 2781.24,1699.92 "/>
    <polygon class="fil1" points="4998.35,1699.92 4678.3,1699.92 4678.3,7.58 4998.35,7.58 "/>
    <path class="fil1" d="M5139.22 1699.92l980.2 -1696.34 292.73 0 1003.53 1696.34 -347.4 0 -220.71 -396.08 -1171.57 0 -216.71 396.08 -320.07 0zm671.47 -640.13l900.18 0 -450.76 -807.49 -449.42 807.49z"/>
    <path class="fil1" d="M9076.01 255.63l-1340.27 0 0 1188.25 1340.27 0 0 -460.1 -692.14 0 0 -232.04 1012.2 0 0 548.1c0,154.7 -28.68,260.06 -86.69,316.07 -58.02,56.01 -168.03,84.02 -329.4,84.02l-1148.9 0c-160.69,0 -270.72,-27.34 -328.72,-82.69 -58.02,-55.34 -86.69,-161.36 -86.69,-317.4l0 -892.85c0,-155.36 29.34,-261.38 88.02,-318.07 58.68,-56.68 167.36,-85.35 327.4,-85.35l1148.9 0c157.37,0 266.06,28.01 326.07,84.02 60.02,56.01 90.03,154.7 90.03,296.06l0 48.68 -320.07 55.35 0 -232.05z"/>
    <g>
     <path class="fil2" d="M10968.05 2011.74l-598.09 0 0 116.33 598.09 0 0 -116.33zm-43.82 -847.42l3.7 -62.42c2.43,-42.06 5.57,-82.75 9.48,-120.84 3.64,-35.88 7.85,-68.38 12.61,-96.04 28.2,-163.53 179.06,-176.91 237.69,-45.98 10.88,24.37 17.41,53.33 17.41,86.28 0,50.84 -15.2,92.22 -41.96,125.89 -25.51,32.17 -61.04,55.95 -103.46,73.4 -11.71,4.85 -23.87,9.31 -36.42,13.33 -13.02,4.21 -25.9,7.89 -38.56,11.08l-60.5 15.3 0 0zm-510.46 0l-60.5 -15.3c-12.66,-3.19 -25.53,-6.87 -38.55,-11.08 -12.52,-4.02 -24.71,-8.48 -36.44,-13.33 -42.42,-17.45 -77.93,-41.23 -103.43,-73.4 -26.8,-33.68 -41.97,-75.06 -41.97,-125.89 0,-32.95 6.52,-61.91 17.43,-86.28 54.39,-121.39 208.1,-125.5 237.66,45.98 4.73,27.66 8.93,60.16 12.61,96.04 3.87,38.1 7.02,78.79 9.52,120.84l3.66 62.42 0 0zm124.95 396.35c0.27,-66.43 0,-140.39 -1.26,-216.05l-0.81 -48.82 48.67 2.39 41.25 1.72 40.78 1.13 0 -0.19 3.28 0 0 0.19 40.83 -1.13 41.22 -1.72 48.7 -2.39 -0.81 48.82c-1.31,75.66 -1.54,149.62 -1.33,216.05 0.29,66.1 1.05,125.4 1.86,171.83l0.82 46.57 -265.8 0 0.78 -46.57c0.83,-46.43 1.59,-105.74 1.83,-171.83l0 0zm-120.49 -240.37c1.57,79.63 1.99,158.89 1.74,230.42 -0.25,71.72 -1.13,135.15 -1.99,183.2l-0.78 45.15 -265.87 0 0 116.33 1035.3 0 0 -116.33 -265.8 0 -0.81 -45.15c-0.87,-48.05 -1.75,-111.42 -2,-183.2 -0.19,-71.53 0.16,-150.79 1.75,-230.42l0.76 -37.26 36.68 -6.81c26.8,-4.9 52.78,-10.78 77.79,-17.84 24.47,-6.82 47.84,-14.7 69.91,-23.83 67.61,-27.9 123.09,-65.45 161.09,-115.78 37.26,-49.48 58.34,-112.76 58.34,-193.46 0,-56.22 -12.26,-105.35 -32.94,-146.38 -22.46,-44.57 -54.86,-80 -92.12,-104.67 -16.33,-10.88 -33.73,-19.65 -51.78,-26.28 -17.99,-6.56 -36.47,-10.98 -55.01,-13.08 -19.26,-2.07 -38.87,-1.76 -58.24,1.17 -14.95,2.31 -29.53,5.99 -43.47,11.23l-11.24 4.94c-35.89,15.94 -68.7,42.03 -94.73,79 -24.39,34.66 -42.72,78.97 -52.22,133.72 -6.26,36.34 -11.36,77.71 -15.43,122.31 -4.1,45.21 -7.39,95.36 -10,147.95l-2.03 41.33 -41.15 2.26 -46.77 2.11 -47.54 1.22 -1.43 0 -47.51 -1.22 -46.75 -2.11 -41.18 -2.26 -2 -41.33c-2.63,-52.6 -5.92,-102.75 -10.02,-147.95 -4.05,-44.61 -9.19,-85.98 -15.43,-122.31 -9.46,-54.76 -27.88,-99.07 -52.27,-133.78 -25.87,-36.72 -58.71,-62.8 -94.7,-78.73l-13.71 -6.08c-13.21,-4.76 -26.9,-8.15 -40.97,-10.3 -19.37,-2.93 -38.92,-3.24 -58.21,-1.17 -18.58,2.1 -37.08,6.52 -55.05,13.08 -17.99,6.63 -35.43,15.4 -51.75,26.28 -37.3,24.67 -69.69,60.1 -92.18,104.67 -20.66,41.04 -32.94,90.21 -32.94,146.38 0,80.7 21.13,143.98 58.37,193.46 38,50.34 93.46,87.89 161.09,115.78 22.02,9.13 45.47,17.01 69.94,23.83l0.15 0c25.2,7.1 51.13,12.99 77.61,17.84l36.7 6.81 0.75 37.26 0 0zm476.18 914.74l-450.86 0 0 116.34 450.86 0 0 -116.34z"/>
     <polygon class="fil2" points="10151.34,125.74 11186.64,125.74 11186.64,9.39 10151.34,9.39 "/>
     <path class="fil3" d="M9530.77 891.3c21.43,-0.15 55.3,-3.18 82.02,-19.31 23.83,-14.37 43.47,-42.46 43.47,-95.99l0 -540.69c0,-103.84 45.13,-162.52 99.91,-195.51 51.29,-30.94 109.06,-36.23 143.67,-36.23l99 0 0 116.42 -99 0c-21.32,0 -56.26,2.79 -83.66,19.32 -23.88,14.41 -43.51,42.51 -43.51,96l0 540.69c0,83.88 -29.44,138.28 -69.61,173.48 40.17,35.3 69.61,89.72 69.61,173.55l0 540.69c0,53.48 19.63,81.62 43.51,95.99 27.4,16.52 62.34,19.36 83.66,19.36l99 0 0 116.33 -99 0c-34.62,0 -92.39,-5.25 -143.67,-36.13 -54.78,-33.05 -99.91,-91.73 -99.91,-195.55l0 -540.69c0,-53.49 -19.64,-81.63 -43.47,-96 -26.72,-16.08 -60.59,-19.16 -82.02,-19.32l0 -116.42z"/>
     <path class="fil3" d="M11565.29 776l0 -540.69c0,-53.49 -19.61,-81.59 -43.43,-96 -27.46,-16.53 -62.37,-19.32 -83.64,-19.32l-99.04 0 0 -116.42 99.04 0c34.61,0 92.37,5.29 143.64,36.23 54.81,32.99 99.86,91.68 99.86,195.51l0 540.69c0,53.53 19.66,81.62 43.53,95.99 26.67,16.13 60.55,19.16 81.98,19.31l0 116.42c-21.43,0.16 -55.31,3.24 -81.98,19.32 -23.87,14.37 -43.53,42.51 -43.53,96l0 540.69c0,103.83 -45.05,162.5 -99.86,195.55 -51.28,30.88 -109.04,36.13 -143.64,36.13l-99.04 0 0 -116.33 99.04 0c21.27,0 56.18,-2.84 83.64,-19.36 23.82,-14.37 43.43,-42.51 43.43,-95.99l0 -540.69c0,-83.84 29.46,-138.25 69.67,-173.55 -40.21,-35.2 -69.67,-89.61 -69.67,-173.48z"/>
    </g>
   </g>
   <path class="fil4" d="M2356.39 2750.11l-168.87 0 0 339.87 168.87 0c76.04,0 129.8,-13.33 161.15,-39.99 31.35,-26.5 47.11,-70.58 47.11,-132.22 0,-59.37 -16.06,-102.23 -48.02,-128.43 -31.96,-26.2 -85.42,-39.23 -160.24,-39.23zm11.06 -63.61c43.17,0 79.06,2.88 107.54,8.63 28.47,5.76 52.71,15 72.55,27.72 30.14,19.84 53.77,47.11 71.19,81.64 17.26,34.68 25.9,72.55 25.9,113.59 0,43.77 -8.48,83.15 -25.45,118.28 -17.11,34.99 -40.89,62.55 -71.64,82.7 -19.24,12.42 -43.17,21.51 -71.95,27.41 -28.62,5.91 -64.67,8.94 -108.14,8.94l-258.08 0 0 -468.91 258.08 0zm684.7 468.91l0 -468.91 451.64 0 0 62.71 -373.49 0 0 130.85 228.1 0 0 61.8 -228.1 0 0 149.03 377.13 0 0 64.52 -455.28 0zm1249.77 -405.3l-331.68 0 0 130.86 295.34 0c41.8,0 70.43,7.72 85.88,23.02 15.45,15.45 23.17,44.68 23.17,87.55l0 52.71c0,43.31 -7.57,72.7 -22.72,88 -15.14,15.45 -43.92,23.17 -86.33,23.17l-273.69 0c-42.41,0 -71.33,-7.72 -86.78,-23.33 -15.3,-15.6 -23.03,-44.83 -23.03,-87.84l0 -12.88 72.71 -16.81 0 75.43 348.95 0 0 -140.85 -294.44 0c-42.56,0 -71.34,-7.73 -86.48,-23.33 -15,-15.45 -22.57,-44.68 -22.57,-87.7l0 -40.74c0,-42.86 7.57,-72.1 22.57,-87.55 15.14,-15.6 43.92,-23.32 86.48,-23.32l249.6 0c41.81,0 70.59,7.57 86.49,22.87 15.9,15.15 23.78,41.8 23.78,79.97l0 9.85 -67.25 19.08 0 -68.16zm518.1 405.3l0 -468.91 451.64 0 0 62.71 -373.49 0 0 130.85 228.1 0 0 61.8 -228.1 0 0 149.03 377.13 0 0 64.52 -455.28 0zm849.93 0l0 -468.91 49.22 0 350.77 313.67c8.03,7.12 16.51,15.6 25.6,25.75 8.93,10 18.17,21.05 27.72,33.17 -2.43,-15 -4.09,-30.75 -5.3,-47.26 -1.22,-16.36 -1.82,-39.07 -1.82,-68l0 -257.33 71.79 0 0 468.91 -43.92 0 -360.16 -326.09c-1.67,-1.52 -4.4,-3.79 -7.88,-7.12 -17.87,-15.9 -31.05,-31.2 -39.53,-45.59 1.82,14.09 3.03,29.23 3.94,45.44 0.91,16.05 1.36,35.14 1.36,56.95l0 276.41 -71.79 0zm1133.91 0l-255.96 -468.91 84.36 0 207.2 390.75 197.8 -390.75 77.7 0 -245.36 468.91 -65.74 0zm718.62 -65.43l388.03 0 0 -339.87 -388.03 0 0 339.87zm-78.15 -292.92c0,-42.41 7.57,-71.49 22.87,-87.09 15.29,-15.6 44.37,-23.48 87.24,-23.48l324.12 0c42.41,0 71.19,7.72 86.33,23.17 15.3,15.6 22.88,44.69 22.88,87.4l0 247.18c0,43.31 -7.58,72.7 -22.88,88 -15.14,15.45 -43.92,23.17 -86.33,23.17l-324.12 0c-42.87,0 -71.95,-7.88 -87.24,-23.63 -15.3,-15.6 -22.87,-44.83 -22.87,-87.54l0 -247.18zm989.87 358.34l0 -468.91 78.15 0 0 403.48 355.31 0 0 65.43 -433.46 0zm857.95 0l-255.96 -468.91 84.36 0 207.2 390.75 197.8 -390.75 77.7 0 -245.36 468.91 -65.74 0zm671.22 0l0 -468.91 451.64 0 0 62.71 -373.49 0 0 130.85 228.1 0 0 61.8 -228.1 0 0 149.03 377.13 0 0 64.52 -455.28 0zm1014.1 0l-255.96 -468.91 84.36 0 207.2 390.75 197.8 -390.75 77.7 0 -245.36 468.91 -65.74 0zm718.62 -65.43l388.03 0 0 -339.87 -388.03 0 0 339.87zm-78.15 -292.92c0,-42.41 7.57,-71.49 22.87,-87.09 15.29,-15.6 44.37,-23.48 87.24,-23.48l324.12 0c42.41,0 71.19,7.72 86.33,23.17 15.3,15.6 22.88,44.69 22.88,87.4l0 247.18c0,43.31 -7.58,72.7 -22.88,88 -15.14,15.45 -43.92,23.17 -86.33,23.17l-324.12 0c-42.87,0 -71.95,-7.88 -87.24,-23.63 -15.3,-15.6 -22.87,-44.83 -22.87,-87.54l0 -247.18zm1337.31 -49.68l-269.29 0 0 164.48 269.29 0c19.54,0 32.87,-3.49 39.99,-10.61 7.12,-7.11 10.6,-19.53 10.6,-37.26l0 -68.31c0,-17.72 -3.63,-30.14 -10.9,-37.41 -7.27,-7.27 -20.45,-10.9 -39.69,-10.9zm-347.43 408.02l0 -468.91 378.03 0c35.14,0 60.43,7.12 75.88,21.51 15.45,14.39 23.18,37.56 23.18,69.52l0 104.66c0,31.66 -7.73,54.68 -23.18,69.07 -15.45,14.39 -40.74,21.51 -75.88,21.51l-68.92 0 214.16 182.65 -116.31 0 -190.84 -182.65 -137.97 0 0 182.65 -78.15 0zm1240.83 0l0 -468.91 446.19 0 0 63.61 -368.04 0 0 153.58 209.92 0 0 62.7 -209.92 0 0 189.02 -78.15 0zm865.52 -468.91l0 403.48 341.68 0 0 -403.48 77.25 0 0 357.74c0,43.31 -7.57,72.7 -22.87,88 -15.3,15.45 -44.08,23.17 -86.34,23.17l-278.22 0c-42.41,0 -71.34,-7.88 -86.64,-23.48 -15.3,-15.75 -23.02,-44.98 -23.02,-87.69l0 -357.74 78.15 0zm871.74 468.91l0 -468.91 78.15 0 0 403.48 355.31 0 0 65.43 -433.46 0zm801.61 0l0 -468.91 78.15 0 0 403.48 355.31 0 0 65.43 -433.46 0zm1201.46 -405.3l-331.68 0 0 130.86 295.34 0c41.8,0 70.43,7.72 85.88,23.02 15.45,15.45 23.17,44.68 23.17,87.55l0 52.71c0,43.31 -7.57,72.7 -22.72,88 -15.14,15.45 -43.92,23.17 -86.33,23.17l-273.69 0c-42.41,0 -71.33,-7.72 -86.78,-23.33 -15.3,-15.6 -23.03,-44.83 -23.03,-87.84l0 -12.88 72.71 -16.81 0 75.43 348.95 0 0 -140.85 -294.44 0c-42.56,0 -71.34,-7.73 -86.48,-23.33 -15,-15.45 -22.57,-44.68 -22.57,-87.7l0 -40.74c0,-42.86 7.57,-72.1 22.57,-87.55 15.14,-15.6 43.92,-23.32 86.48,-23.32l249.6 0c41.81,0 70.59,7.57 86.49,22.87 15.9,15.15 23.78,41.8 23.78,79.97l0 9.85 -67.25 19.08 0 -68.16zm699.84 0l0 405.3 -78.15 0 0 -405.3 -214.46 0 0 -63.61 507.98 0 0 63.61 -215.37 0zm567.61 229.92l252.63 0 -126.61 -239.91 -126.01 239.91zm-170.08 175.38l256.11 -468.91 83.91 0 260.66 468.91 -86.18 0 -59.83 -115.41 -317.45 0 -59.98 115.41 -77.25 0zm1357.91 -405.3l-325.33 0 0 339.87 325.33 0 0 -117.22 78.16 16.35 0 55.29c0,43.16 -7.57,72.55 -22.57,88 -14.99,15.3 -43.77,23.02 -86.18,23.02l-262.78 0c-42.56,0 -71.64,-7.72 -87.09,-23.33 -15.3,-15.44 -23.02,-44.68 -23.02,-87.69l0 -247.18c0,-42.71 7.72,-71.95 23.02,-87.4 15.45,-15.6 44.53,-23.32 87.09,-23.32l262.78 0c42.41,0 71.19,7.72 86.18,23.02 15,15.45 22.57,44.68 22.57,87.7l0 44.53 -78.16 14.69 0 -106.33zm492.8 405.3l0 -468.91 78.15 0 0 200.98 292.62 -200.98 114.5 0 -340.02 224.46 377.27 244.45 -131 0 -313.37 -210.68 0 210.68 -78.15 0z"/>
  </g>
 </g>
</svg>
